<?xml version="1.0" encoding="utf-8"?>
<!-- Generator: Adobe Illustrator 16.0.0, SVG Export Plug-In . SVG Version: 6.00 Build 0)  -->
<!DOCTYPE svg PUBLIC "-//W3C//DTD SVG 1.1//EN" "http://www.w3.org/Graphics/SVG/1.1/DTD/svg11.dtd">
<svg version="1.1" id="Capa_1" xmlns="http://www.w3.org/2000/svg" xmlns:xlink="http://www.w3.org/1999/xlink" x="0px" y="0px"
	 width="381px" height="269.396px" viewBox="0 0 381 269.396" enable-background="new 0 0 381 269.396" xml:space="preserve">
<rect y="-0.093" fill-rule="evenodd" clip-rule="evenodd" fill="#9117A0" width="381" height="269.489"/>
<g>
	<path fill-rule="evenodd" clip-rule="evenodd" fill="#00CCB4" d="M175.276,91.713c0-1.021-0.049-2.046,0.011-3.064
		c0.112-1.954-0.666-3.367-2.2-4.6c-6.077-4.873-10.303-11.047-12.52-18.533c-5.563-18.792,4.538-38.482,23.36-45.601
		c20.97-7.931,44.544,3.303,51.074,24.338c6.111,19.683-5.283,40.618-25.475,46.776c-6.605,2.016-13.297,2.324-20.049,0.841
		c-1.639-0.36-3.081-0.142-4.459,0.877c-2.018,1.492-4.108,2.886-6.157,4.337c-0.79,0.56-1.553,1.047-2.568,0.5
		c-1.015-0.546-1.03-1.463-1.021-2.422C175.286,94.012,175.276,92.862,175.276,91.713z"/>
	<g>
		<path fill-rule="evenodd" clip-rule="evenodd" fill="#FFFFFF" d="M276.41,172.768c-1.591-0.594-3.252-0.588-4.911-0.564
			c-8.729,0.128-17.438,0.654-26.139,1.323c-8.527,0.659-17.039,1.49-25.536,2.468c-2.44,0.282-4.879,0.558-7.483,0.854
			c1.465-5.077,2.882-10.002,4.369-15.162c1.685,2.501,3.812,3.785,6.484,4.12c1.888,0.24,3.736-0.066,5.546-0.595
			c6.228-1.816,11.017-5.707,14.78-10.807c7.862-10.659,10.854-22.827,10.466-35.909c-0.091-3.111-0.778-6.165-2.271-8.959
			c-1.637-3.077-4.065-5.071-7.627-5.516c-5.173-0.644-9.212,1.339-12.403,5.307c-0.516,0.644-0.957,1.345-1.614,2.275
			c0-1.129,0.074-1.968-0.015-2.79c-0.196-1.829-1.443-2.831-3.263-2.604c-4.071,0.506-7.17,2.31-8.43,6.489
			c-0.259,0.854-0.567,1.694-0.805,2.552c-2.407,8.68-4.78,17.368-7.212,26.042c-0.974,3.475-1.768,7.003-2.993,10.404
			c-0.698,1.938-1.756,3.605-3.726,4.476c-1.793,0.795-2.672,0.31-2.893-1.632c-0.205-1.834,0.045-3.655,0.344-5.462
			c1.382-8.412,3.9-16.53,6.363-24.664c0.996-3.294,2.304-6.492,3.055-9.856c0.514-2.299-0.275-3.753-2.432-4.727
			c-0.858-0.385-1.753-0.638-2.697-0.707c-3.313-0.247-4.858,0.713-6.088,3.778c-0.116,0.294-0.1,0.694-0.495,0.831
			c-4.55-4.737-11.156-4.872-16.449-1.456c-2.862,1.844-5.28,4.158-7.383,6.808c-5.595,7.051-9.098,15.115-11.304,23.773
			c-1.544,6.057-2.447,12.185-1.278,18.439c1.356,7.244,6.306,11.119,13.506,10.411c5.278-0.519,8.993-3.51,11.7-7.916
			c0.225-0.366,0.32-0.846,0.78-1.099c0.551,4.522,3.624,6.879,8.097,6.353c2.356-0.274,4.546-1.023,6.687-2.065
			c0.019,0.166,0.071,0.298,0.044,0.408c-0.934,3.445-1.894,6.885-2.801,10.336c-0.187,0.707-0.68,0.775-1.229,0.853
			c-2.569,0.361-5.14,0.71-7.709,1.071c-13.182,1.847-26.319,3.968-39.425,6.297c-1.972,0.352-3.943,0.7-6.043,1.07
			c0.108-0.37,0.152-0.531,0.2-0.691c6.701-21.94,13.399-43.879,20.1-65.817c0.473-1.549,0.925-3.104,0.922-4.739
			c-0.003-2.235-1.009-3.272-3.241-3.06c-5.255,0.497-9.644,2.413-11.833,7.678c-0.342,0.826-0.748,1.622-1.053,2.461
			c-1.535,4.232-2.979,8.499-4.58,12.707c-2.741,7.193-5.679,14.303-9.927,20.775c-1.382,2.108-2.912,4.099-4.923,5.656
			c-1.16,0.899-2.409,1.6-3.934,1.64c-2.118,0.057-2.871-0.675-2.787-2.81c0.061-1.578,0.391-3.122,0.791-4.645
			c1.687-6.376,4.14-12.498,6.09-18.786c1.01-3.244,2.09-6.476,2.216-9.922c0.047-1.309-0.449-2.297-1.506-3.053
			c-2.646-1.894-5.6-2.427-8.735-1.845c-2.438,0.45-3.296,1.717-2.754,4.258c0.492,2.314,0.232,4.458-0.669,6.594
			c-0.479,1.135-0.882,2.303-1.294,3.462c-2.447,6.878-5.548,13.531-6.91,20.771c-0.781,4.159-1.354,8.321-0.623,12.545
			c0.864,4.977,4.06,7.665,9.1,7.708c1.758,0.015,3.474-0.229,5.168-0.688c4.387-1.195,8.042-3.571,11.324-7.232
			c-0.066,0.552-0.058,0.767-0.119,0.956c-1.978,6.014-3.973,12.02-5.93,18.038c-0.205,0.631-0.582,0.815-1.154,0.986
			c-7.463,2.239-14.435,5.538-20.92,9.845c-7.971,5.293-14.924,11.577-19.368,20.25c-3.084,6.014-5.283,12.252-4.934,19.156
			c0.314,6.211,3.827,10.569,9.871,12.063c7.826,1.932,14.821,0.077,21.08-4.835c5.658-4.439,9.715-10.201,13.273-16.35
			c4.197-7.25,7.513-14.917,10.524-22.705l0.103-0.269l2.051-5.396l3.646-0.738c0.109-0.027,0.219-0.051,0.335-0.075
			c1.553-0.313,3.104-0.627,4.656-0.938c15.074-3.049,30.152-6.061,45.359-8.385c1.066-0.163,0.981,0.128,0.782,0.933
			c-0.525,2.103-1.032,4.223-0.836,6.422c0.133,1.475,0.808,2.34,2.262,2.497c4.093,0.437,7.437-0.831,8.782-4.643
			c0.711-2.005,1.293-4.047,1.811-6.105c0.178-0.702,0.48-1.017,1.271-1.102c3.256-0.339,6.498-0.816,9.754-1.18
			c16.113-1.798,32.268-3.149,48.429-4.445c2.538-0.201,5.099-0.28,7.584-0.955c1.498-0.406,2.654-1.192,3.044-2.767
			c0.275-1.111,0.521-2.243,0.622-3.38C279.282,174.779,278.396,173.509,276.41,172.768z M219.88,151.736
			c2.354-8.562,4.551-17.175,8.374-25.242c0.987-2.082,2.185-4.041,3.825-5.694c1.208-1.216,2.644-1.973,4.334-2.269
			c2.078-0.362,3.571,0.439,4.395,2.386c0.435,1.026,0.698,2.642,0.672,4.409c-0.252,5.429-2.108,10.707-4.387,15.862
			c-1.346,3.042-2.944,5.949-5.127,8.489c-1.948,2.265-4.148,4.176-7.285,4.55c-1.589,0.188-3.024-0.218-4.321-1.176
			C219.882,152.699,219.729,152.296,219.88,151.736z M195.351,125.467c-0.184,3.873-1.391,7.508-2.694,11.103
			c-1.72,4.754-3.603,9.445-5.978,13.917c-0.979,1.848-2.067,3.623-3.577,5.094c-0.991,0.966-2.1,1.732-3.525,1.898
			c-2.506,0.294-4.222-0.789-4.947-3.203c-0.902-3.001-0.422-5.998,0.255-8.951c1.63-7.092,4.305-13.695,9.33-19.14
			c1.447-1.571,3.019-3.001,4.914-4.026c0.555-0.299,1.147-0.567,1.755-0.735c2.831-0.782,4.365,0.358,4.465,3.277
			C195.358,124.956,195.351,125.212,195.351,125.467z M123.263,212.142c-3.132,7.204-6.887,14.037-12.078,19.998
			c-2.141,2.454-4.598,4.547-7.453,6.123c-1.3,0.715-2.739,1.532-4.185,0.562c-1.391-0.932-1.255-2.534-1.104-3.972
			c0.564-5.409,2.846-10.081,6.233-14.274c5.413-6.699,11.912-11.969,19.944-15.237c0.313-0.127,0.636-0.239,0.958-0.35
			c0.076-0.025,0.166-0.013,0.457-0.027C125.229,207.479,124.272,209.822,123.263,212.142z"/>
		<path fill-rule="evenodd" clip-rule="evenodd" fill="#FFFFFF" d="M265.979,140.387l0.409-1.889l2.113-0.227
			c6.572-0.747,12.505-3.16,17.798-7.156c5.179-3.906,8.818-8.752,9.832-15.371c1.196-7.8-2.766-13.68-10.513-15.105
			c-4.677-0.86-8.935,0.455-12.849,2.994c-4.723,3.068-8.19,7.295-10.75,12.238c-4.753,9.18-6.825,19.065-7.459,29.304
			c0.044,2.402,0.223,4.777,0.82,7.097c1.317,5.121,4.258,8.593,9.699,9.603c8.295,1.541,19.788-3.913,23.727-11.415
			c1.327-2.532,1.988-5.266,1.237-8.14c-0.619-2.348-2.191-2.939-4.249-1.652c-1.354,0.846-2.338,2.089-3.445,3.208
			c-2.974,3.008-6.315,5.454-10.584,6.275c-2.836,0.543-5.178-0.936-5.971-3.713c-0.531-1.867-0.316-3.709,0.078-5.561
			L265.979,140.387z M269.432,127.291c1.66-5.863,3.93-11.398,8.429-15.736c0.454-0.439,0.975-0.827,1.521-1.143
			c2.772-1.594,5.275-0.117,5.294,3.238c-0.05,0.709-0.132,1.564-0.463,2.35c-2.688,6.314-7.22,10.461-14.046,11.898
			C269.587,128.021,269.22,128.039,269.432,127.291z"/>
	</g>
	<g>
		<path fill-rule="evenodd" clip-rule="evenodd" fill="#9117A0" d="M195.16,54.833c-0.138-0.062-0.276-0.125-0.419-0.189
			c0.188-0.417,0.554-0.485,0.834-0.659c1.751-1.068,2.982-2.514,3.338-4.59c0.735-4.303-2.124-8.132-6.597-8.663
			c-4.744-0.562-9.516-0.261-14.275-0.207c-2.095,0.023-3.124,1.16-3.134,3.257c-0.041,7.781-0.043,15.565,0,23.346
			c0.01,2.177,1.039,3.184,3.241,3.268c2.164,0.084,4.335,0.057,6.504,0.041c2.846-0.021,5.699,0.125,8.529-0.348
			c3.938-0.656,6.788-3.352,7.23-6.867C200.923,59.165,199.335,56.626,195.16,54.833z M181.117,45.931
			c0-0.521,0.066-0.913,0.746-0.889c2.541,0.082,5.094-0.174,7.625,0.248c2.375,0.398,3.377,1.359,3.453,3.352
			c0.078,1.99-1.226,3.518-3.399,3.944c-1.341,0.263-6.271,0.156-7.375,0.199c-0.746,0.03-1.078-0.191-1.061-0.999L181.117,45.931z
			 M194.089,62.305c-0.219,1.446-1.055,2.373-2.355,2.94c-1.236,0.541-2.554,0.645-3.875,0.673h-4.851
			c-1.891,0-1.891,0.007-1.891-1.95v-6.003c-0.006-0.583,0.222-0.853,0.83-0.841c2.721,0.057,5.454-0.178,8.162,0.215
			C193.147,57.778,194.516,59.533,194.089,62.305z"/>
		<path fill-rule="evenodd" clip-rule="evenodd" fill="#9117A0" d="M218.804,58.858c-1.444-0.749-3.008-1.159-4.574-1.561
			c-1.601-0.41-3.252-0.667-4.749-1.424c-0.759-0.383-1.374-0.921-1.324-1.854c0.051-0.917,0.704-1.417,1.469-1.77
			c1.95-0.899,4.497-0.355,5.96,1.246c0.486,0.533,0.949,1.102,1.504,1.552c0.956,0.774,2.59,0.694,3.421-0.088
			c0.772-0.725,0.854-1.91,0.212-3.057c-0.314-0.565-0.75-1.028-1.248-1.435c-3.354-2.738-10.602-2.949-14.109-0.411
			c-3.495,2.527-3.32,7.076,0.369,9.282c1.51,0.902,3.197,1.363,4.878,1.826c1.555,0.427,3.151,0.709,4.62,1.422
			c0.941,0.457,1.435,1.203,1.448,2.219c0.013,0.962-0.618,1.541-1.401,1.97c-2.231,1.222-5.724,0.536-7.327-1.457
			c-0.398-0.494-0.72-1.05-1.088-1.57c-0.722-1.017-1.707-1.232-2.816-0.809c-1.098,0.42-1.53,1.295-1.395,2.443
			c0.196,1.644,1.142,2.807,2.461,3.699c2.166,1.464,4.608,1.892,7.167,1.854c2.319,0.006,4.594-0.248,6.663-1.397
			c2.302-1.279,3.365-3.311,3.334-5.896C222.249,61.264,220.759,59.871,218.804,58.858z"/>
	</g>
</g>
</svg>
